<svg width="19" height="17" viewBox="0 0 19 17" fill="none" xmlns="http://www.w3.org/2000/svg">
<path d="M14.534 8.96316V6.18334C14.5473 4.06402 13.1221 2.65835 11.8976 2.09862C11.5468 1.93821 11.1851 1.81458 10.8177 1.72278V1.54537C10.8177 0.693254 10.1244 0 9.27229 0C8.42017 0 7.72691 0.693254 7.72691 1.54537V1.74967C7.39589 1.83899 7.07044 1.95551 6.75457 2.1014C5.40144 2.72511 4.03038 4.22845 4.01802 6.18149V8.96316C4.01802 10.9375 3.32075 12.6316 1.94568 13.9983C1.86377 14.0799 1.8341 14.2001 1.86872 14.3105C1.90333 14.4208 1.99698 14.5024 2.11103 14.5222L5.04446 15.0287C5.5909 15.123 6.09407 15.2003 6.57283 15.2639C7.11216 16.321 8.17136 16.9994 9.32854 16.9994C10.486 16.9994 11.5455 16.3207 12.0846 15.263C12.5615 15.1997 13.0622 15.1227 13.6055 15.0287L16.5386 14.5222C16.6527 14.5027 16.746 14.4208 16.7809 14.3105C16.8159 14.2004 16.7862 14.0799 16.704 13.9983C15.2643 12.567 14.534 10.8729 14.534 8.96316ZM8.34506 1.54537C8.34506 1.03416 8.76108 0.618149 9.27229 0.618149C9.78349 0.618149 10.1995 1.03416 10.1995 1.54537V1.60162C9.58352 1.51323 8.95858 1.51694 8.34506 1.61615V1.54537ZM9.32885 16.3809C8.54627 16.3809 7.815 15.9921 7.34552 15.3564C8.0363 15.4274 8.68103 15.4633 9.32545 15.4633C9.97234 15.4633 10.6192 15.4274 11.3128 15.3554C10.843 15.9918 10.1114 16.3809 9.32885 16.3809ZM13.5007 14.4192C12.9076 14.5216 12.364 14.6047 11.8503 14.6702C11.8497 14.6702 11.849 14.6702 11.8481 14.6702C11.6216 14.699 11.4015 14.724 11.1861 14.7456C11.1842 14.7456 11.1827 14.7459 11.1808 14.7459C10.9833 14.7657 10.7905 14.7818 10.5995 14.7954C10.5636 14.7979 10.5277 14.8003 10.4922 14.8025C10.3268 14.8133 10.1633 14.822 10.0008 14.8282C9.9677 14.8294 9.93432 14.8312 9.90125 14.8322C9.51676 14.8452 9.13753 14.8452 8.75335 14.8325C8.71904 14.8312 8.68443 14.8294 8.65012 14.8282C8.49033 14.8217 8.3293 14.8136 8.16642 14.8028C8.12778 14.8003 8.08915 14.7979 8.05021 14.7951C7.86507 14.7818 7.67777 14.7663 7.48645 14.7472C7.47934 14.7466 7.47255 14.7459 7.46544 14.7453C7.25156 14.724 7.03335 14.699 6.80896 14.6705C6.80804 14.6705 6.80711 14.6705 6.80618 14.6705C6.29064 14.6053 5.74482 14.5216 5.14923 14.4189L2.78172 14.0103C4.01277 12.6028 4.63617 10.9079 4.63617 8.96316V6.18334C4.64668 4.50352 5.83785 3.20479 7.01326 2.66268C7.36282 2.50165 7.72537 2.38142 8.09409 2.29704C8.09718 2.29642 8.10058 2.29673 8.10368 2.29611C8.86554 2.12489 9.67594 2.11716 10.4465 2.2751C10.4505 2.27602 10.4545 2.27417 10.4585 2.27479C10.8615 2.35886 11.2584 2.48619 11.6407 2.66082C12.7809 3.18223 13.9266 4.47231 13.9158 6.1818V8.96347C13.9158 10.8281 14.5881 12.562 15.867 14.011L13.5007 14.4192Z" fill="white"/>
<path d="M11.2556 3.50431C10.0579 2.95694 8.59136 2.95632 7.40173 3.50493C6.72332 3.81771 5.57263 4.73288 5.56336 6.17966C5.56243 6.35027 5.69966 6.48935 5.87058 6.49059C5.8712 6.49059 5.87182 6.49059 5.87243 6.49059C6.04212 6.49059 6.18058 6.35367 6.18151 6.18337C6.18862 5.0469 7.1146 4.3181 7.66043 4.06621C8.68965 3.59116 9.9618 3.5924 10.9981 4.06621C11.1536 4.13729 11.3369 4.06899 11.408 3.91383C11.479 3.75837 11.4104 3.57509 11.2556 3.50431Z" fill="white"/>
<path d="M1.48418 6.27203C1.36333 6.15118 1.16799 6.15118 1.04714 6.27203C0.371817 6.94736 0 7.84615 0 8.80335C0 9.76056 0.371817 10.6597 1.04714 11.3347C1.10741 11.3949 1.18654 11.4252 1.26566 11.4252C1.34478 11.4252 1.42391 11.3949 1.48418 11.3347C1.60502 11.2138 1.60502 11.0185 1.48418 10.8976C0.925678 10.3391 0.618149 9.59551 0.618149 8.80335C0.618149 8.01119 0.925678 7.26725 1.48418 6.70906C1.60471 6.58822 1.60471 6.39288 1.48418 6.27203Z" fill="white"/>
<path d="M2.56688 10.7218C2.646 10.7218 2.72513 10.6915 2.7854 10.6312C2.90624 10.5104 2.90624 10.315 2.7854 10.1942C1.99478 9.40359 1.99478 8.11753 2.7854 7.32723C2.90624 7.20638 2.90624 7.01104 2.7854 6.8902C2.66455 6.76935 2.46921 6.76935 2.34837 6.8902C1.31698 7.92158 1.31698 9.60016 2.34837 10.6312C2.40863 10.6918 2.48776 10.7218 2.56688 10.7218Z" fill="white"/>
<path d="M17.4974 6.27203C17.3765 6.15118 17.1812 6.15118 17.0604 6.27203C16.9395 6.39288 16.9395 6.58822 17.0604 6.70906C17.6189 7.26756 17.9264 8.01119 17.9264 8.80335C17.9264 9.59551 17.6189 10.3391 17.0604 10.8976C16.9395 11.0185 16.9395 11.2138 17.0604 11.3347C17.1206 11.3949 17.1998 11.4252 17.2789 11.4252C17.358 11.4252 17.4371 11.3949 17.4974 11.3347C18.1727 10.6597 18.5445 9.76056 18.5445 8.80335C18.5445 7.84615 18.1727 6.94736 17.4974 6.27203Z" fill="white"/>
<path d="M15.7591 6.8902C15.6382 7.01104 15.6382 7.20638 15.7591 7.32723C16.5497 8.11784 16.5497 9.4039 15.7591 10.1942C15.6382 10.315 15.6382 10.5104 15.7591 10.6312C15.8194 10.6915 15.8985 10.7218 15.9776 10.7218C16.0567 10.7218 16.1359 10.6915 16.1961 10.6312C17.2275 9.59985 17.2275 7.92127 16.1961 6.8902C16.0753 6.76935 15.8796 6.76935 15.7591 6.8902Z" fill="white"/>
</svg>
