<svg width="24" height="24" viewBox="0 0 24 24" fill="none" xmlns="http://www.w3.org/2000/svg">
<path d="M23.1787 6.49486L17.0644 0.141469C16.9773 0.0510937 16.8572 0 16.7318 0H7.6188C6.59894 0 5.7692 0.829406 5.7692 1.84884V8.3077H2.07606C1.31303 8.3077 0.692261 8.92828 0.692261 9.69112V16.6166C0.692261 17.3794 1.31303 18 2.07606 18H5.7692V22.1544C5.7692 23.172 6.59894 24 7.6188 24H21.4581C22.4779 24 23.3077 23.1725 23.3077 22.1554V6.81492C23.3077 6.69558 23.2614 6.58088 23.1787 6.49486ZM16.8461 1.24598L21.8655 6.46153H16.8461V1.24598ZM2.07606 17.0769C1.822 17.0769 1.61537 16.8705 1.61537 16.6166V9.69112C1.61537 9.4373 1.82204 9.23077 2.07606 9.23077H14.5392C14.7933 9.23077 15 9.4373 15 9.69112V16.6166C15 16.8705 14.7933 17.0769 14.5392 17.0769H2.07606ZM22.3846 22.1554C22.3846 22.6635 21.9689 23.0769 21.458 23.0769H7.6188C7.10791 23.0769 6.69227 22.6631 6.69227 22.1544V18H14.5392C15.3023 18 15.923 17.3794 15.923 16.6166V9.69112C15.923 8.92828 15.3023 8.3077 14.5392 8.3077H6.69227V1.84884C6.69227 1.33833 7.10791 0.923062 7.6188 0.923062H15.923V6.92306C15.923 7.17797 16.1297 7.38459 16.3846 7.38459H22.3846V22.1554Z" fill="#C3CAD6"/>
<path d="M13.3427 13.4447C13.2372 13.2743 13.0912 13.14 12.9046 13.0417C12.718 12.9435 12.43 12.8484 12.0406 12.7564C11.6512 12.6645 11.406 12.5761 11.305 12.4914C11.2256 12.4247 11.186 12.3444 11.186 12.2507C11.186 12.1479 11.2283 12.0658 11.3131 12.0046C11.4448 11.909 11.6269 11.8613 11.8594 11.8613C12.0847 11.8613 12.2538 11.9059 12.3665 11.9951C12.4791 12.0843 12.5526 12.2308 12.5868 12.4346L13.3873 12.3994C13.3747 12.0352 13.2427 11.744 12.9912 11.526C12.7396 11.3078 12.3651 11.1987 11.8676 11.1987C11.5628 11.1987 11.3028 11.2446 11.0873 11.3366C10.8719 11.4286 10.7069 11.5624 10.5924 11.7382C10.478 11.914 10.4206 12.1029 10.4206 12.3048C10.4206 12.6184 10.5424 12.8844 10.7858 13.1026C10.9589 13.2576 11.2599 13.3883 11.6891 13.4947C12.0225 13.5776 12.2362 13.6353 12.3299 13.6677C12.467 13.7164 12.563 13.7737 12.6179 13.8394C12.6729 13.9053 12.7004 13.985 12.7004 14.0789C12.7004 14.2248 12.6351 14.3524 12.5044 14.4615C12.3736 14.5705 12.1794 14.6251 11.9216 14.6251C11.6782 14.6251 11.4848 14.5638 11.3415 14.4411C11.1982 14.3186 11.1032 14.1266 11.0562 13.8651L10.2773 13.9408C10.3296 14.3844 10.4901 14.722 10.7587 14.9537C11.0274 15.1852 11.4123 15.3011 11.9135 15.3011C12.2578 15.3011 12.5455 15.2529 12.7762 15.1564C13.007 15.0601 13.1854 14.9126 13.3116 14.7142C13.4378 14.516 13.501 14.3032 13.501 14.076C13.5009 13.8255 13.4482 13.615 13.3427 13.4447Z" fill="#C3CAD6"/>
<path d="M7.91923 14.5628V11.2987H7.11865V15.2308H9.90964V14.5628H7.91923Z" fill="#C3CAD6"/>
<path d="M5.33109 13.1917L6.56433 11.2662H5.63677L4.85794 12.54L4.0628 11.2662H3.12717L4.35483 13.1619L3 15.2307H3.96L4.84167 13.8596L5.72053 15.2307H6.68597L5.33109 13.1917Z" fill="#C3CAD6"/>
</svg>
