<svg width="24" height="24" viewBox="0 0 24 24" fill="none" xmlns="http://www.w3.org/2000/svg">
<path d="M19.7829 9.58467L24 7.17519L12.0002 0.360352L0 7.17519L4.21713 9.58467L0 11.9793L4.21713 14.3888L0 16.7834L12.0002 23.6393L24 16.7834L19.7829 14.3888L24 11.9793L19.7829 9.58467ZM12.0002 1.36485L22.2351 7.17738L12.0002 13.0253L1.76485 7.17738L12.0002 1.36485ZM5.0989 10.0882L12.0002 14.0311L18.9015 10.0882L22.2351 11.9815L12.0002 17.8294L1.76485 11.9815L5.0989 10.0882ZM22.2351 16.7856L12.0002 22.6335L1.76485 16.7856L5.0989 14.8923L12.0002 18.8352L18.9015 14.8923L22.2351 16.7856Z" fill="#C3CAD6"/>
</svg>
