<svg width="24" height="24" viewBox="0 0 24 24" fill="none" xmlns="http://www.w3.org/2000/svg">
<path d="M12 0C16.7927 0 20.6919 3.89916 20.6919 8.69184C20.6919 14.6397 12.9135 23.3715 12.5823 23.7404C12.2713 24.0868 11.7282 24.0862 11.4177 23.7404C11.0865 23.3715 3.30811 14.6397 3.30811 8.69184C3.30821 3.89916 7.20732 0 12 0ZM12 13.065C14.4113 13.065 16.3731 11.1032 16.3731 8.69184C16.3731 6.2805 14.4113 4.31878 12 4.31878C9.58871 4.31878 7.62699 6.28055 7.62699 8.69189C7.62699 11.1032 9.58871 13.065 12 13.065Z" fill="#C3CAD6"/>
</svg>
