<svg width="18" height="18" viewBox="0 0 18 18" fill="none" xmlns="http://www.w3.org/2000/svg">
<g clip-path="url(#clip0)">
<path d="M3.38614 11.0495V18H14.6138V11.0495H3.38614ZM14.0792 17.4653H3.9208V11.5842H14.0792V17.4653H14.0792Z" fill="white"/>
<path d="M14.6139 4.27722V0H3.38614V4.27722H0V13.7227H2.76237V13.1881H0.534656V4.81187H17.4653V13.1881H15.2376V13.7227H18V4.27722H14.6139ZM14.0792 4.27722H3.9208V0.534656H14.0792V4.27722H14.0792Z" fill="white"/>
<path d="M12.5643 14.2574H5.43563V14.7921H12.5643V14.2574Z" fill="white"/>
<path d="M12.5643 12.8317H5.43563V13.3663H12.5643V12.8317Z" fill="white"/>
<path d="M12.5643 15.6832H5.43563V16.2178H12.5643V15.6832Z" fill="white"/>
<path d="M2.76237 5.70297C2.22188 5.70297 1.78218 6.14271 1.78218 6.68316C1.78218 7.22362 2.22188 7.66336 2.76237 7.66336C3.30286 7.66336 3.74256 7.22362 3.74256 6.68316C3.74256 6.14271 3.30286 5.70297 2.76237 5.70297ZM2.76237 7.1287C2.51667 7.1287 2.31684 6.92884 2.31684 6.68316C2.31684 6.43746 2.5167 6.23763 2.76237 6.23763C3.00808 6.23763 3.20791 6.43749 3.20791 6.68316C3.20791 6.92887 3.00808 7.1287 2.76237 7.1287Z" fill="white"/>
<path d="M9.26733 7.84156H8.73267V8.37622H9.26733V7.84156Z" fill="white"/>
<path d="M10.3366 7.84156H9.80199V8.37622H10.3366V7.84156Z" fill="white"/>
<path d="M8.19802 7.84156H7.66337V8.37622H8.19802V7.84156Z" fill="white"/>
</g>
<defs>
<clipPath id="clip0">
<rect width="18" height="18" fill="white"/>
</clipPath>
</defs>
</svg>
