<svg width="58" height="81" viewBox="0 0 58 81" fill="none" xmlns="http://www.w3.org/2000/svg">
<path fill-rule="evenodd" clip-rule="evenodd" d="M26.1386 34.82C21.9419 34.82 18.5083 38.3768 18.5083 42.724C18.5083 47.0712 21.9419 50.628 26.1386 50.628C30.3353 50.628 33.769 47.0712 33.769 42.724C33.769 38.3768 30.3898 34.82 26.1386 34.82ZM19.6528 10.1482C25.4301 10.1482 30.1173 15.0035 30.1173 20.988C30.1173 25.6175 27.2832 29.5695 23.359 31.1503C22.9775 31.2632 22.5415 31.3761 22.1599 31.5455C21.3424 31.7713 20.5249 31.8842 19.6528 31.8842C13.8756 31.8842 9.18833 27.0289 9.18833 21.0444C9.18833 15.0035 13.8756 10.1482 19.6528 10.1482ZM37.2026 25.8997C37.5841 25.9562 38.0202 25.9562 38.4017 25.9562C40.5818 25.9562 42.5439 25.2787 44.2335 24.0931C47.0131 22.1736 48.8662 18.8426 48.8662 15.1164C48.8662 9.13192 44.179 4.2766 38.4017 4.2766C36.3306 4.2766 34.423 4.89763 32.8424 5.91386C32.7879 5.91386 32.7879 5.97031 32.7334 5.97031C31.3164 6.93009 30.1718 8.17215 29.3543 9.6965C32.2974 12.4629 34.1505 16.4714 34.1505 20.875C34.1505 22.23 33.987 23.4721 33.66 24.7141C34.8045 25.3916 35.9491 25.7868 37.2026 25.8997ZM7.00823 36.5702C6.13619 37.9816 5.37316 39.393 4.88264 41.0303C4.39211 42.6676 4.1741 44.3048 4.1196 45.9985C4.0106 48.4262 4.1196 50.9103 4.22861 53.338C4.28311 54.4107 4.28311 55.5398 4.28311 56.669C4.28311 58.7014 4.33761 60.6774 4.33761 62.7099C4.33761 64.6859 4.33761 66.6619 4.39211 68.6944C4.39211 69.5977 4.39211 76.9371 4.39211 80.0988H0.304425C0.304425 76.8242 0.304425 69.5977 0.304425 68.6944C0.304425 66.7184 0.249922 64.7424 0.249922 62.7099C0.249922 60.6774 0.249922 58.7014 0.19542 56.669C0.19542 55.5963 0.19542 54.5236 0.140917 53.4509C-0.0225905 49.0472 -0.295103 43.9661 1.01296 39.7318C1.61248 37.7558 2.53903 35.9491 3.62908 34.2554C4.82813 32.3923 6.1907 31.0374 7.60776 29.4566L7.55326 29.4001C5.97269 26.9724 5.04614 24.0931 5.04614 20.988C5.04614 12.6887 11.5319 5.91386 19.5983 5.91386C21.8874 5.91386 24.013 6.47843 25.9206 7.4382C27.0652 5.4622 28.5912 3.82494 30.4443 2.58288C30.5533 2.52642 30.6078 2.46996 30.6623 2.4135C30.7168 2.35705 30.7713 2.35705 30.8258 2.30059C33.0604 0.889157 35.6221 0.0987549 38.4017 0.0987549C46.4136 0.0987549 52.9539 6.81717 52.9539 15.1729C52.9539 19.7459 50.9918 23.8108 47.9396 26.5772L48.2666 26.8595C50.5557 29.1743 52.5723 31.0938 54.3709 33.9167C55.461 35.6669 56.3875 37.417 56.987 39.393C58.2951 43.6838 58.0226 48.7085 57.8591 53.1122C57.8046 54.1848 57.8046 55.2575 57.8046 56.3302C57.8046 58.3627 57.7501 60.3387 57.7501 62.3712C57.7501 64.3472 57.7501 66.3232 57.6956 68.3556C57.6956 69.4848 57.6956 78.3486 57.6411 79.4213L57.5866 80.0988H53.5534L53.6079 79.2519C53.6624 78.1792 53.6624 69.3719 53.6624 68.2992C53.6624 66.3232 53.7169 64.3472 53.7169 62.3147C53.7169 60.2822 53.7169 58.3062 53.7714 56.2738C53.7714 55.1446 53.7714 54.0155 53.8259 52.9428C53.9349 50.5151 54.0439 48.031 53.9349 45.6033C53.8804 43.9096 53.6624 42.2159 53.1719 40.6351C52.6813 39.0543 51.9183 37.5864 51.0463 36.175C49.4112 33.6344 47.5581 31.8842 45.487 29.7953C45.16 29.4565 44.833 29.1743 44.506 28.8355C42.6529 29.6824 40.6363 30.1905 38.4562 30.1905C36.1671 30.1905 34.0415 29.6259 32.1339 28.6661C31.5344 29.6824 30.8803 30.5857 30.1173 31.4326C34.5865 33.0698 37.7477 37.5299 37.7477 42.724C37.7477 46.1679 36.3306 49.2731 34.096 51.4749C35.186 52.6605 36.2216 53.9026 37.2026 55.4269C37.4751 55.8221 37.6931 56.2173 37.9657 56.669C38.0202 56.7254 38.0202 56.7819 38.0747 56.8383C38.7832 58.1369 39.4372 59.4918 39.8732 60.9597C39.9278 61.1291 39.9823 61.242 39.9823 61.4114C40.4728 63.1051 40.5818 64.4601 40.5818 66.2103C40.5818 66.6619 40.5818 67.17 40.5818 67.6781L40.4183 80.0423H36.3851C36.3851 75.9774 36.6031 71.5172 36.4941 67.5652C36.4396 64.6294 36.0581 61.4114 33.987 57.8546C33.987 57.7981 33.9325 57.7981 33.9325 57.7417C32.9514 56.2173 31.9159 54.9753 30.7713 53.7896C29.4088 54.4107 27.8827 54.693 26.3021 54.693C24.9396 54.693 23.6315 54.4671 22.4324 54.0155C22.0509 54.4671 21.6149 54.9188 21.2334 55.3705C20.3614 56.4431 19.7073 57.4029 19.0533 58.5885C17.3092 61.863 16.9822 64.8553 16.9277 67.5652C16.8187 71.5737 17.0367 76.0338 17.0367 80.0423H13.0035L12.84 67.6781C12.7855 65.6457 12.84 64.1213 13.276 62.3147C13.712 60.2822 14.4751 58.4756 15.4561 56.6125C15.7286 56.1609 16.0012 55.7092 16.2737 55.2575C17.0912 53.959 17.9632 52.8863 18.8353 51.8701C16.3282 49.6683 14.6931 46.3937 14.6931 42.724C14.6931 40.127 15.5106 37.6993 16.8732 35.7233C14.4751 35.2152 12.295 34.086 10.4419 32.5617C9.18834 33.8038 7.93478 35.1023 7.00823 36.5702Z" fill="white"/>
</svg>
