<svg width="84" height="84" viewBox="0 0 84 84" fill="none" xmlns="http://www.w3.org/2000/svg">
<path d="M42 84C65.196 84 84 65.196 84 42C84 18.804 65.196 0 42 0C18.804 0 0 18.804 0 42C0 65.196 18.804 84 42 84Z" fill="#039BE5"/>
<path d="M19.2184 41.09L59.7135 25.4765C61.5929 24.7975 63.2344 25.935 62.6254 28.777L62.6289 28.7735L55.7339 61.257C55.2229 63.56 53.8544 64.12 51.9399 63.035L41.4399 55.2965L36.3754 60.1755C35.8154 60.7355 35.3429 61.208 34.2579 61.208L35.0034 50.5225L54.4634 32.942C55.3104 32.1965 54.2744 31.7765 53.1579 32.5185L29.1094 47.6595L18.7424 44.4255C16.4919 43.7115 16.4429 42.175 19.2184 41.09Z" fill="white"/>
</svg>
