<svg width="24" height="24" fill="none" xmlns="http://www.w3.org/2000/svg"><path d="M23.179 6.495L17.064.14a.462.462 0 00-.332-.14H7.619c-1.02 0-1.85.83-1.85 1.849v6.459H2.076c-.763 0-1.384.62-1.384 1.383v6.926c0 .762.621 1.383 1.384 1.383H5.77v4.154A1.85 1.85 0 007.62 24h13.84a1.85 1.85 0 001.849-1.845V6.815a.462.462 0 00-.13-.32zm-6.333-5.249l5.02 5.216h-5.02V1.246zm-14.77 15.83a.46.46 0 01-.46-.46V9.692a.46.46 0 01.46-.46H14.54a.46.46 0 01.461.46v6.926c0 .253-.207.46-.46.46H2.075zm20.309 5.08a.925.925 0 01-.927.92H7.618a.926.926 0 01-.926-.922V18h7.847c.763 0 1.384-.62 1.384-1.383V9.69c0-.763-.62-1.383-1.384-1.383H6.692v-6.46c0-.51.416-.925.927-.925h8.304v6c0 .255.207.462.462.462h6v14.77z" fill="#C3CAD6"/><path d="M13.343 13.445a1.114 1.114 0 00-.438-.403c-.187-.098-.475-.194-.864-.286-.39-.091-.635-.18-.736-.265a.304.304 0 01-.119-.24c0-.103.042-.185.127-.246.132-.096.314-.144.546-.144.226 0 .395.045.508.134.112.09.186.236.22.44l.8-.036c-.012-.364-.144-.655-.396-.873-.251-.218-.626-.327-1.123-.327-.305 0-.565.046-.78.138a1.076 1.076 0 00-.496.401 1.02 1.02 0 00-.171.567c0 .313.121.58.365.798.173.155.474.285.903.392.334.083.547.14.64.173a.66.66 0 01.289.171.361.361 0 01.082.24.487.487 0 01-.196.382c-.13.11-.325.164-.582.164-.244 0-.437-.061-.58-.184-.144-.122-.239-.314-.286-.576l-.779.076c.053.443.213.781.482 1.013.268.231.653.347 1.155.347.344 0 .632-.048.862-.145a1.167 1.167 0 00.725-1.08c0-.25-.053-.461-.158-.631zM7.92 14.563v-3.264h-.801v3.932h2.79v-.668H7.92zm-2.589-1.371l1.233-1.926h-.927l-.78 1.274-.794-1.274h-.936l1.228 1.896L3 15.23h.96l.882-1.371.879 1.37h.965l-1.355-2.038z" fill="#C3CAD6"/></svg>