<?xml version="1.0" encoding="utf-8"?><svg viewBox="0 0 84 84" xmlns="http://www.w3.org/2000/svg" xmlns:xlink="http://www.w3.org/1999/xlink"><style>:root>svg{display:none}:root>svg:target{display:block}</style><svg viewBox="0 0 58 81" id="RGSU-logo" xmlns="http://www.w3.org/2000/svg"><path fill-rule="evenodd" d="M26.139 34.82c-4.197 0-7.63 3.557-7.63 7.904 0 4.347 3.433 7.904 7.63 7.904 4.196 0 7.63-3.557 7.63-7.904 0-4.347-3.38-7.904-7.63-7.904zm-6.486-24.672c5.777 0 10.464 4.856 10.464 10.84 0 4.63-2.834 8.582-6.758 10.162-.382.113-.818.226-1.2.396a9.275 9.275 0 01-2.506.338c-5.777 0-10.465-4.855-10.465-10.84 0-6.04 4.688-10.896 10.465-10.896zM37.203 25.9c.381.056.817.056 1.199.056 2.18 0 4.142-.677 5.831-1.863 2.78-1.92 4.633-5.25 4.633-8.977 0-5.984-4.687-10.84-10.464-10.84-2.071 0-3.979.622-5.56 1.638-.054 0-.054.056-.109.056a10.398 10.398 0 00-3.379 3.727c2.943 2.766 4.797 6.774 4.797 11.178 0 1.355-.164 2.597-.491 3.84 1.145.677 2.29 1.072 3.543 1.185zM7.008 36.57c-.872 1.412-1.635 2.823-2.125 4.46-.49 1.638-.709 3.275-.763 4.968-.11 2.428 0 4.912.109 7.34.054 1.073.054 2.202.054 3.331 0 2.032.055 4.008.055 6.04 0 1.977 0 3.953.054 5.985V80.1H.304V68.694c0-1.976-.054-3.952-.054-5.984 0-2.033 0-4.009-.055-6.041 0-1.073 0-2.145-.054-3.218-.164-4.404-.436-9.485.872-13.72.6-1.975 1.526-3.782 2.616-5.476 1.2-1.863 2.562-3.218 3.979-4.798l-.055-.057a15.351 15.351 0 01-2.507-8.412c0-8.3 6.486-15.074 14.552-15.074 2.29 0 4.415.564 6.323 1.524a14.6 14.6 0 014.523-4.855.756.756 0 00.218-.17c.055-.056.11-.056.164-.112A14.044 14.044 0 0138.402.099c8.012 0 14.552 6.718 14.552 15.074 0 4.573-1.962 8.638-5.014 11.404l.327.282c2.289 2.315 4.305 4.235 6.104 7.058 1.09 1.75 2.017 3.5 2.616 5.476 1.308 4.29 1.036 9.316.872 13.72-.054 1.072-.054 2.145-.054 3.217 0 2.033-.055 4.009-.055 6.041 0 1.976 0 3.952-.054 5.985 0 1.129 0 9.993-.055 11.065l-.054.678h-4.034l.055-.847c.054-1.073.054-9.88.054-10.953 0-1.976.055-3.952.055-5.984 0-2.033 0-4.009.054-6.041 0-1.13 0-2.258.055-3.331.109-2.428.218-4.912.109-7.34-.055-1.693-.273-3.387-.763-4.968-.49-1.58-1.254-3.049-2.126-4.46-1.635-2.54-3.488-4.29-5.559-6.38-.327-.339-.654-.62-.981-.96-1.853.847-3.87 1.355-6.05 1.355-2.289 0-4.415-.564-6.322-1.524a16.888 16.888 0 01-2.017 2.767c4.47 1.637 7.63 6.097 7.63 11.291a12.26 12.26 0 01-3.651 8.75c1.09 1.187 2.126 2.429 3.107 3.953.272.395.49.79.763 1.242.054.056.054.113.109.17.708 1.298 1.362 2.653 1.798 4.12.055.17.11.283.11.452.49 1.694.599 3.05.599 4.8v1.467l-.164 12.364h-4.033c0-4.065.218-8.525.11-12.477-.055-2.936-.437-6.154-2.508-9.71 0-.057-.055-.057-.055-.113-.98-1.525-2.016-2.767-3.16-3.952-1.363.62-2.89.903-4.47.903-1.362 0-2.67-.226-3.87-.677-.381.451-.817.903-1.199 1.355a20.697 20.697 0 00-2.18 3.218c-1.744 3.274-2.07 6.266-2.125 8.976-.11 4.009.109 8.469.109 12.477h-4.033l-.164-12.364c-.054-2.032 0-3.557.436-5.363.436-2.033 1.2-3.84 2.18-5.703l.818-1.355c.817-1.298 1.69-2.37 2.561-3.387a12.166 12.166 0 01-4.142-9.146c0-2.597.818-5.025 2.18-7-2.398-.509-4.578-1.638-6.431-3.162-1.254 1.242-2.507 2.54-3.434 4.008z"/></svg><svg viewBox="0 0 19 17" id="bell" xmlns="http://www.w3.org/2000/svg"><path d="M14.534 8.963v-2.78c.013-2.119-1.412-3.525-2.636-4.084a6.216 6.216 0 00-1.08-.376v-.178a1.547 1.547 0 00-3.091 0v.205a6.138 6.138 0 00-.972.351c-1.354.624-2.725 2.127-2.737 4.08v2.782c0 1.975-.697 3.669-2.072 5.035a.31.31 0 00.165.524l2.933.507c.547.094 1.05.171 1.529.235.54 1.057 1.598 1.735 2.756 1.735 1.157 0 2.216-.678 2.756-1.736.476-.063.977-.14 1.52-.234l2.934-.507a.309.309 0 00.165-.524c-1.44-1.431-2.17-3.125-2.17-5.035zM8.345 1.545a.928.928 0 011.854 0v.057a6.146 6.146 0 00-1.854.014v-.07zm.984 14.836a2.477 2.477 0 01-1.983-1.025c.69.071 1.335.107 1.98.107.646 0 1.293-.036 1.987-.108a2.478 2.478 0 01-1.984 1.026zm4.172-1.962c-.593.103-1.137.186-1.65.251h-.003c-.226.029-.447.054-.662.076h-.005a20.165 20.165 0 01-1.18.082l-.1.004c-.384.013-.763.013-1.148 0-.034 0-.069-.003-.103-.004-.16-.006-.32-.014-.484-.025l-.116-.008a20.301 20.301 0 01-.564-.048l-.02-.002a24.397 24.397 0 01-.657-.074h-.003a37.315 37.315 0 01-1.657-.252l-2.367-.409c1.23-1.407 1.854-3.102 1.854-5.047v-2.78c.01-1.68 1.202-2.978 2.377-3.52.35-.161.712-.282 1.081-.366h.01a5.62 5.62 0 012.343-.022h.012c.402.084.8.211 1.182.386 1.14.521 2.286 1.811 2.275 3.52v2.782c0 1.865.672 3.599 1.951 5.048l-2.366.408z"/><path d="M11.256 3.504c-1.198-.547-2.665-.548-3.854 0-.679.314-1.83 1.229-1.839 2.676 0 .17.137.31.308.31h.001c.17 0 .309-.136.31-.307.007-1.136.933-1.865 1.478-2.117a4.091 4.091 0 013.338 0 .31.31 0 00.258-.562zM1.484 6.272a.309.309 0 00-.437 0A3.555 3.555 0 000 8.803c0 .958.372 1.857 1.047 2.532a.308.308 0 10.437-.437 2.941 2.941 0 01-.866-2.095c0-.792.308-1.536.866-2.094a.31.31 0 000-.437z"/><path d="M2.567 10.722a.308.308 0 00.218-.528 2.03 2.03 0 010-2.867.309.309 0 10-.437-.437 2.648 2.648 0 000 3.741c.06.06.14.09.219.09zm14.93-4.45a.309.309 0 10-.437.437 2.94 2.94 0 01.866 2.094 2.94 2.94 0 01-.866 2.095.309.309 0 10.437.437 3.555 3.555 0 001.047-2.532c0-.957-.371-1.856-1.047-2.531z"/><path d="M15.76 6.89a.309.309 0 000 .437c.79.79.79 2.077 0 2.867a.309.309 0 10.436.437 2.648 2.648 0 000-3.74.309.309 0 00-.437 0z"/></svg><svg viewBox="0 0 24 24" id="calendar" xmlns="http://www.w3.org/2000/svg"><path d="M22.8 1.6H20V.4a.4.4 0 00-.4-.4h-2.8a.4.4 0 00-.4.4v1.2H7.6V.4a.4.4 0 00-.4-.4H4.4a.4.4 0 00-.4.4v1.2H1.2a.4.4 0 00-.4.4v21.6a.4.4 0 00.4.4h21.6a.4.4 0 00.4-.4V2a.4.4 0 00-.4-.4zM17.2.8h2v2.4h-2V.8zM4.8.8h2v2.4h-2V.8zM1.6 2.4H4v1.2a.4.4 0 00.4.4h2.8a.4.4 0 00.4-.4V2.4h8.8v1.2a.4.4 0 00.4.4h2.8a.4.4 0 00.4-.4V2.4h2.4V6H1.6V2.4zm0 20.8V6.8h20.8v16.4H1.6z"/><path d="M15.2 9.2H4.4v11.6h15.2V9.2h-4.4zm-2.8.8h2.8v2.8h-2.8V10zm2.8 6.4h-2.8v-2.8h2.8v2.8zm-6.4-2.8h2.8v2.8H8.8v-2.8zm0-3.6h2.8v2.8H8.8V10zm-3.6 0H8v2.8H5.2V10zm0 3.6H8v2.8H5.2v-2.8zM8 20H5.2v-2.8H8V20zm3.6 0H8.8v-2.8h2.8V20zm3.6 0h-2.8v-2.8h2.8V20zm3.6 0H16v-2.8h2.8V20zm0-3.6H16v-2.8h2.8v2.8zm0-6.4v2.8H16V10h2.8z"/></svg><svg viewBox="0 0 9 16" id="chevron" xmlns="http://www.w3.org/2000/svg"><path d="M1.358 8L8.835.91a.513.513 0 000-.754.584.584 0 00-.795 0L.165 7.623a.513.513 0 000 .754l7.875 7.467c.11.104.253.156.397.156a.577.577 0 00.398-.156.513.513 0 000-.754L1.358 8z"/></svg><svg viewBox="0 0 24 24" id="excel" xmlns="http://www.w3.org/2000/svg"><path d="M23.179 6.495L17.064.14a.462.462 0 00-.332-.14H7.619c-1.02 0-1.85.83-1.85 1.849v6.459H2.076c-.763 0-1.384.62-1.384 1.383v6.926c0 .762.621 1.383 1.384 1.383H5.77v4.154A1.85 1.85 0 007.62 24h13.84a1.85 1.85 0 001.849-1.845V6.815a.462.462 0 00-.13-.32zm-6.333-5.249l5.02 5.216h-5.02V1.246zm-14.77 15.83a.46.46 0 01-.46-.46V9.692a.46.46 0 01.46-.46H14.54a.46.46 0 01.461.46v6.926c0 .253-.207.46-.46.46H2.075zm20.309 5.08a.925.925 0 01-.927.92H7.618a.926.926 0 01-.926-.922V18h7.847c.763 0 1.384-.62 1.384-1.383V9.69c0-.763-.62-1.383-1.384-1.383H6.692v-6.46c0-.51.416-.925.927-.925h8.304v6c0 .255.207.462.462.462h6v14.77z"/><path d="M13.343 13.445a1.114 1.114 0 00-.438-.403c-.187-.098-.475-.194-.864-.286-.39-.091-.635-.18-.736-.265a.304.304 0 01-.119-.24c0-.103.042-.185.127-.246.132-.096.314-.144.546-.144.226 0 .395.045.508.134.112.09.186.236.22.44l.8-.036c-.012-.364-.144-.655-.396-.873-.251-.218-.626-.327-1.123-.327-.305 0-.565.046-.78.138a1.076 1.076 0 00-.496.401 1.02 1.02 0 00-.171.567c0 .313.121.58.365.798.173.155.474.285.903.392.334.083.547.14.64.173a.66.66 0 01.289.171.361.361 0 01.082.24.487.487 0 01-.196.382c-.13.11-.325.164-.582.164-.244 0-.437-.061-.58-.184-.144-.122-.239-.314-.286-.576l-.779.076c.053.443.213.781.482 1.013.268.231.653.347 1.155.347.344 0 .632-.048.862-.145a1.167 1.167 0 00.725-1.08c0-.25-.053-.461-.158-.631zM7.92 14.563v-3.264h-.801v3.932h2.79v-.668H7.92zm-2.589-1.371l1.233-1.926h-.927l-.78 1.274-.794-1.274h-.936l1.228 1.896L3 15.23h.96l.882-1.371.879 1.37h.965l-1.355-2.038z"/></svg><svg viewBox="0 0 24 24" id="layers" xmlns="http://www.w3.org/2000/svg"><path d="M19.783 9.585L24 7.175 12 .36 0 7.175l4.217 2.41L0 11.979l4.217 2.41L0 16.783l12 6.856 12-6.856-4.217-2.394L24 11.979l-4.217-2.394zM12 1.365l10.235 5.812L12 13.025 1.765 7.177 12 1.365zm-6.9 8.723l6.9 3.943 6.901-3.943 3.334 1.894L12 17.829 1.765 11.981l3.334-1.893zm17.136 6.698L12 22.634 1.765 16.786l3.334-1.894L12 18.835l6.901-3.943 3.334 1.894z"/></svg><svg viewBox="0 0 24 24" id="pin" xmlns="http://www.w3.org/2000/svg"><path d="M12 0c4.793 0 8.692 3.9 8.692 8.692 0 5.948-7.778 14.68-8.11 15.048a.783.783 0 01-1.164 0c-.332-.368-8.11-9.1-8.11-15.048C3.308 3.899 7.208 0 12 0zm0 13.065a4.378 4.378 0 004.373-4.373A4.378 4.378 0 0012 4.319a4.378 4.378 0 00-4.373 4.373A4.378 4.378 0 0012 13.065z"/></svg><svg viewBox="0 0 18 18" id="print" xmlns="http://www.w3.org/2000/svg"><path d="M3.386 11.05V18h11.228v-6.95H3.386zm10.693 6.415H3.921v-5.88h10.158v5.88z"/><path d="M14.614 4.277V0H3.386v4.277H0v9.446h2.762v-.535H.535V4.812h16.93v8.376h-2.227v.535H18V4.277h-3.386zm-.535 0H3.921V.535h10.158v3.742zm-1.515 9.98H5.436v.535h7.128v-.535z"/><path d="M12.564 12.832H5.436v.534h7.128v-.534zm0 2.851H5.436v.535h7.128v-.535zm-9.802-9.98a.981.981 0 000 1.96.981.981 0 000-1.96zm0 1.426a.446.446 0 11.001-.892.446.446 0 010 .892zm6.505.713h-.534v.534h.534v-.534zm1.07 0h-.535v.534h.535v-.534zm-2.139 0h-.535v.534h.535v-.534z"/><defs><clipPath id="hclip0"><path d="M0 0h18v18H0z"/></clipPath></defs></svg><svg viewBox="0 0 33 33" id="search" xmlns="http://www.w3.org/2000/svg"><path d="M32.214 31.945l-9.258-9.628a13.042 13.042 0 003.824-9.233C26.78 5.869 20.911 0 13.696 0S.612 5.869.612 13.084s5.87 13.084 13.084 13.084a13.03 13.03 0 008.34-3.01l9.28 9.65a.622.622 0 10.898-.864zm-18.518-7.023c-6.527 0-11.837-5.31-11.837-11.838S7.169 1.246 13.696 1.246c6.528 0 11.838 5.31 11.838 11.838 0 6.527-5.31 11.838-11.838 11.838z"/></svg><svg viewBox="0 0 84 84" id="telegram" xmlns="http://www.w3.org/2000/svg"><path d="M42 84c23.196 0 42-18.804 42-42S65.196 0 42 0 0 18.804 0 42s18.804 42 42 42z"/><path d="M19.218 41.09l40.496-15.614c1.879-.678 3.52.459 2.911 3.301l.004-.004-6.895 32.484c-.511 2.303-1.88 2.863-3.794 1.778l-10.5-7.738-5.065 4.879c-.56.56-1.032 1.032-2.117 1.032l.745-10.685 19.46-17.581c.847-.745-.189-1.166-1.305-.423l-24.049 15.14-10.367-3.233c-2.25-.715-2.3-2.251.476-3.336z"/></svg><svg viewBox="0 0 24 24" id="user" xmlns="http://www.w3.org/2000/svg"><path d="M24 12c0-6.617-5.383-12-12-12S0 5.383 0 12a11.97 11.97 0 003.895 8.84l-.011.01.389.328c.025.021.053.039.078.06a12.043 12.043 0 00.853.643c.233.161.472.313.716.458l.16.092c.268.153.541.296.821.428l.062.028a11.86 11.86 0 002.902.918l.08.015c.316.054.636.098.96.127l.118.01c.322.026.647.043.977.043.327 0 .65-.017.97-.043l.121-.009c.321-.03.638-.072.95-.125l.082-.015a11.892 11.892 0 002.862-.897l.1-.045a12.104 12.104 0 001.671-.955c.08-.055.16-.113.24-.17.191-.139.38-.281.562-.43.04-.033.084-.061.124-.095l.4-.333-.012-.01A11.969 11.969 0 0024 12zM.873 12C.873 5.864 5.864.873 12 .873 18.136.873 23.127 5.864 23.127 12a11.1 11.1 0 01-3.748 8.318 3.257 3.257 0 00-.39-.234l-3.694-1.847a.967.967 0 01-.538-.87v-1.29c.086-.106.176-.225.27-.357a8.89 8.89 0 001.141-2.235c.553-.263.91-.813.91-1.435v-1.547a1.59 1.59 0 00-.387-1.034V7.433c.023-.227.103-1.505-.822-2.56-.804-.917-2.106-1.382-3.869-1.382-1.763 0-3.065.465-3.87 1.382-.924 1.055-.844 2.333-.82 2.56v2.036a1.59 1.59 0 00-.388 1.033v1.547c0 .48.216.929.585 1.231a8.199 8.199 0 001.35 2.788v1.263a.974.974 0 01-.508.855L4.9 20.067c-.11.06-.219.13-.328.208A11.1 11.1 0 01.873 12zm17.655 9.003c-.153.11-.308.218-.466.32a10.934 10.934 0 01-.848.502 11.126 11.126 0 01-1.664.717l-.055.02c-.274.09-.55.171-.831.24l-.003.001c-.282.07-.569.128-.857.175l-.023.005c-.271.044-.544.076-.818.1l-.146.01c-.271.021-.543.034-.817.034-.277 0-.552-.013-.827-.034l-.142-.01a11.271 11.271 0 01-.825-.102l-.037-.007a11.075 11.075 0 01-1.697-.424l-.051-.017a11.26 11.26 0 01-.813-.311l-.006-.003a11.4 11.4 0 01-.744-.356c-.032-.017-.064-.032-.095-.05a11.2 11.2 0 01-.846-.503c-.198-.13-.394-.265-.584-.407l-.058-.046.042-.023 3.45-1.882c.593-.324.962-.945.962-1.62v-1.573l-.1-.121c-.01-.01-.954-1.159-1.31-2.713l-.04-.172-.149-.097a.723.723 0 01-.335-.607v-1.547c0-.203.086-.392.243-.534l.144-.13v-2.43l-.004-.057c-.001-.01-.13-1.06.609-1.903.631-.72 1.712-1.084 3.213-1.084 1.495 0 2.573.362 3.206 1.076.738.834.617 1.903.616 1.911l-.004 2.488.144.13c.157.142.243.33.243.534v1.547a.729.729 0 01-.515.687l-.217.067-.07.216a8.075 8.075 0 01-1.089 2.196 5.393 5.393 0 01-.321.414l-.108.123v1.614c0 .704.39 1.336 1.02 1.65l3.695 1.848.07.036c-.047.035-.095.068-.142.102z"/></svg><svg viewBox="0 0 84 84" id="vk" xmlns="http://www.w3.org/2000/svg"><path d="M42 84c23.196 0 42-18.804 42-42S65.196 0 42 0 0 18.804 0 42s18.804 42 42 42z"/><path fill-rule="evenodd" d="M40.413 60.42h3.297s.996-.108 1.504-.657c.468-.503.453-1.447.453-1.447s-.064-4.424 1.989-5.075c2.023-.642 4.622 4.275 7.376 6.165 2.083 1.431 3.666 1.117 3.666 1.117l7.365-.102s3.853-.238 2.026-3.267c-.15-.248-1.064-2.24-5.476-6.336-4.618-4.286-4-3.593 1.563-11.007 3.388-4.516 4.742-7.272 4.32-8.453-.404-1.124-2.896-.827-2.896-.827l-8.292.052s-.615-.084-1.07.188c-.446.267-.733.89-.733.89s-1.313 3.495-3.063 6.466c-3.693 6.27-5.169 6.601-5.772 6.212-1.404-.907-1.054-3.645-1.054-5.59 0-6.077.922-8.61-1.794-9.266-.902-.218-1.565-.362-3.87-.385-2.96-.03-5.464.009-6.882.704-.943.462-1.67 1.491-1.227 1.55.548.073 1.789.335 2.447 1.231.85 1.156.82 3.752.82 3.752s.488 7.153-1.14 8.042c-1.118.61-2.652-.635-5.944-6.323-1.686-2.914-2.96-6.135-2.96-6.135s-.245-.602-.683-.924c-.532-.39-1.275-.514-1.275-.514l-7.88.051s-1.183.033-1.617.548c-.386.457-.03 1.403-.03 1.403S19.75 46.917 26.735 54.19c6.405 6.669 13.678 6.23 13.678 6.23z"/></svg></svg>