<svg width="18" height="18" fill="none" xmlns="http://www.w3.org/2000/svg"><g clip-path="url(#clip0)" fill="#fff"><path d="M3.386 11.05V18h11.228v-6.95H3.386zm10.693 6.415H3.921v-5.88h10.158v5.88z"/><path d="M14.614 4.277V0H3.386v4.277H0v9.446h2.762v-.535H.535V4.812h16.93v8.376h-2.227v.535H18V4.277h-3.386zm-.535 0H3.921V.535h10.158v3.742zm-1.515 9.98H5.436v.535h7.128v-.535z"/><path d="M12.564 12.832H5.436v.534h7.128v-.534zm0 2.851H5.436v.535h7.128v-.535zm-9.802-9.98a.981.981 0 000 1.96.981.981 0 000-1.96zm0 1.426a.446.446 0 11.001-.892.446.446 0 010 .892zm6.505.713h-.534v.534h.534v-.534zm1.07 0h-.535v.534h.535v-.534zm-2.139 0h-.535v.534h.535v-.534z"/></g><defs><clipPath id="clip0"><path fill="#fff" d="M0 0h18v18H0z"/></clipPath></defs></svg>