<svg width="58" height="81" fill="none" xmlns="http://www.w3.org/2000/svg"><path fill-rule="evenodd" clip-rule="evenodd" d="M26.139 34.82c-4.197 0-7.63 3.557-7.63 7.904 0 4.347 3.433 7.904 7.63 7.904 4.196 0 7.63-3.557 7.63-7.904 0-4.347-3.38-7.904-7.63-7.904zm-6.486-24.672c5.777 0 10.464 4.856 10.464 10.84 0 4.63-2.834 8.582-6.758 10.162-.382.113-.818.226-1.2.396a9.275 9.275 0 01-2.506.338c-5.777 0-10.465-4.855-10.465-10.84 0-6.04 4.688-10.896 10.465-10.896zM37.203 25.9c.381.056.817.056 1.199.056 2.18 0 4.142-.677 5.831-1.863 2.78-1.92 4.633-5.25 4.633-8.977 0-5.984-4.687-10.84-10.464-10.84-2.071 0-3.979.622-5.56 1.638-.054 0-.054.056-.109.056a10.398 10.398 0 00-3.379 3.727c2.943 2.766 4.797 6.774 4.797 11.178 0 1.355-.164 2.597-.491 3.84 1.145.677 2.29 1.072 3.543 1.185zM7.008 36.57c-.872 1.412-1.635 2.823-2.125 4.46-.49 1.638-.709 3.275-.763 4.968-.11 2.428 0 4.912.109 7.34.054 1.073.054 2.202.054 3.331 0 2.032.055 4.008.055 6.04 0 1.977 0 3.953.054 5.985V80.1H.304V68.694c0-1.976-.054-3.952-.054-5.984 0-2.033 0-4.009-.055-6.041 0-1.073 0-2.145-.054-3.218-.164-4.404-.436-9.485.872-13.72.6-1.975 1.526-3.782 2.616-5.476 1.2-1.863 2.562-3.218 3.979-4.798l-.055-.057a15.351 15.351 0 01-2.507-8.412c0-8.3 6.486-15.074 14.552-15.074 2.29 0 4.415.564 6.323 1.524a14.6 14.6 0 014.523-4.855.756.756 0 00.218-.17c.055-.056.11-.056.164-.112A14.044 14.044 0 0138.402.099c8.012 0 14.552 6.718 14.552 15.074 0 4.573-1.962 8.638-5.014 11.404l.327.282c2.289 2.315 4.305 4.235 6.104 7.058 1.09 1.75 2.017 3.5 2.616 5.476 1.308 4.29 1.036 9.316.872 13.72-.054 1.072-.054 2.145-.054 3.217 0 2.033-.055 4.009-.055 6.041 0 1.976 0 3.952-.054 5.985 0 1.129 0 9.993-.055 11.065l-.054.678h-4.034l.055-.847c.054-1.073.054-9.88.054-10.953 0-1.976.055-3.952.055-5.984 0-2.033 0-4.009.054-6.041 0-1.13 0-2.258.055-3.331.109-2.428.218-4.912.109-7.34-.055-1.693-.273-3.387-.763-4.968-.49-1.58-1.254-3.049-2.126-4.46-1.635-2.54-3.488-4.29-5.559-6.38-.327-.339-.654-.62-.981-.96-1.853.847-3.87 1.355-6.05 1.355-2.289 0-4.415-.564-6.322-1.524a16.888 16.888 0 01-2.017 2.767c4.47 1.637 7.63 6.097 7.63 11.291a12.26 12.26 0 01-3.651 8.75c1.09 1.187 2.126 2.429 3.107 3.953.272.395.49.79.763 1.242.054.056.054.113.109.17.708 1.298 1.362 2.653 1.798 4.12.055.17.11.283.11.452.49 1.694.599 3.05.599 4.8v1.467l-.164 12.364h-4.033c0-4.065.218-8.525.11-12.477-.055-2.936-.437-6.154-2.508-9.71 0-.057-.055-.057-.055-.113-.98-1.525-2.016-2.767-3.16-3.952-1.363.62-2.89.903-4.47.903-1.362 0-2.67-.226-3.87-.677-.381.451-.817.903-1.199 1.355a20.697 20.697 0 00-2.18 3.218c-1.744 3.274-2.07 6.266-2.125 8.976-.11 4.009.109 8.469.109 12.477h-4.033l-.164-12.364c-.054-2.032 0-3.557.436-5.363.436-2.033 1.2-3.84 2.18-5.703l.818-1.355c.817-1.298 1.69-2.37 2.561-3.387a12.166 12.166 0 01-4.142-9.146c0-2.597.818-5.025 2.18-7-2.398-.509-4.578-1.638-6.431-3.162-1.254 1.242-2.507 2.54-3.434 4.008z" fill="#fff"/></svg>