<svg width="84" height="84" fill="none" xmlns="http://www.w3.org/2000/svg"><path d="M42 84c23.196 0 42-18.804 42-42S65.196 0 42 0 0 18.804 0 42s18.804 42 42 42z" fill="#4D76A1"/><path fill-rule="evenodd" clip-rule="evenodd" d="M40.413 60.42h3.297s.996-.108 1.504-.657c.468-.503.453-1.447.453-1.447s-.064-4.424 1.989-5.075c2.023-.642 4.622 4.275 7.376 6.165 2.083 1.431 3.666 1.117 3.666 1.117l7.365-.102s3.853-.238 2.026-3.267c-.15-.248-1.064-2.24-5.476-6.336-4.618-4.286-4-3.593 1.563-11.007 3.388-4.516 4.742-7.272 4.32-8.453-.404-1.124-2.896-.827-2.896-.827l-8.292.052s-.615-.084-1.07.188c-.446.267-.733.89-.733.89s-1.313 3.495-3.063 6.466c-3.693 6.27-5.169 6.601-5.772 6.212-1.404-.907-1.054-3.645-1.054-5.59 0-6.077.922-8.61-1.794-9.266-.902-.218-1.565-.362-3.87-.385-2.96-.03-5.464.009-6.882.704-.943.462-1.67 1.491-1.227 1.55.548.073 1.789.335 2.447 1.231.85 1.156.82 3.752.82 3.752s.488 7.153-1.14 8.042c-1.118.61-2.652-.635-5.944-6.323-1.686-2.914-2.96-6.135-2.96-6.135s-.245-.602-.683-.924c-.532-.39-1.275-.514-1.275-.514l-7.88.051s-1.183.033-1.617.548c-.386.457-.03 1.403-.03 1.403S19.75 46.917 26.735 54.19c6.405 6.669 13.678 6.23 13.678 6.23z" fill="#fff"/></svg>